<?xml version="1.0" standalone="no"?>
<!DOCTYPE svg PUBLIC "-//W3C//DTD SVG 20010904//EN"
 "http://www.w3.org/TR/2001/REC-SVG-20010904/DTD/svg10.dtd">
<svg version="1.0" xmlns="http://www.w3.org/2000/svg"
 width="1600.000000pt" height="1200.000000pt" viewBox="0 0 1600.000000 1200.000000"
 preserveAspectRatio="xMidYMid meet">

<g transform="translate(0.000000,1200.000000) scale(0.100000,-0.100000)"
fill="#000000" stroke="none">
<path d="M6635 9169 c-33 -11 -148 -64 -255 -117 l-195 -97 -3 -38 c-3 -35 -1
-39 35 -54 24 -10 80 -18 155 -21 220 -9 371 53 459 188 28 44 35 49 58 43 49
-11 97 -34 299 -145 150 -83 216 -125 253 -162 53 -54 109 -140 127 -197 11
-32 112 -502 112 -518 0 -4 -24 0 -52 10 -187 65 -463 -58 -569 -253 -32 -59
-34 -69 -35 -163 0 -55 -6 -118 -13 -139 -20 -58 -9 -153 26 -229 39 -81 133
-191 223 -258 l71 -53 -23 -17 c-63 -48 -62 -48 -141 27 -39 38 -176 175 -304
304 l-232 235 -45 249 c-25 137 -51 255 -58 263 -15 19 -112 67 -563 282 -199
94 -370 171 -381 171 -30 0 -64 -37 -64 -68 0 -34 48 -137 105 -221 119 -179
334 -331 536 -378 41 -9 77 -20 82 -23 4 -4 23 -105 42 -225 l35 -218 137
-191 c76 -105 177 -245 224 -311 48 -66 86 -121 86 -122 -1 -1 -65 16 -142 38
-1379 390 -2705 595 -3563 550 -330 -17 -611 -56 -653 -90 -48 -39 -64 -468
-26 -676 76 -407 246 -701 554 -955 41 -34 43 -39 63 -137 51 -259 173 -486
360 -674 251 -252 564 -381 925 -382 234 -1 423 42 616 141 68 35 1438 909
1812 1156 15 10 27 16 27 13 0 -2 -80 -103 -178 -224 l-177 -219 -185 -433
-185 -432 -107 -132 c-417 -513 -438 -540 -438 -572 0 -41 30 -69 73 -67 40 2
168 44 265 88 188 86 385 256 469 404 23 41 119 269 213 505 131 328 178 437
201 460 l30 30 -20 -50 c-10 -27 -60 -146 -110 -264 l-90 -214 -56 -461 -57
-461 -68 -165 c-38 -91 -114 -273 -169 -405 -56 -131 -101 -249 -101 -261 0
-25 43 -64 70 -64 24 0 128 66 225 144 198 157 356 407 381 602 10 73 19 84
34 38 22 -66 99 -214 161 -305 151 -224 314 -388 714 -711 169 -137 273 -235
320 -302 26 -37 82 -40 105 -5 43 63 176 188 350 329 301 244 422 355 552 510
135 161 217 292 284 453 l32 79 7 -54 c16 -125 89 -296 177 -416 94 -128 341
-337 424 -358 31 -8 72 18 80 50 4 18 -41 136 -165 433 l-170 408 -57 460 -56
460 -105 250 c-58 138 -107 257 -110 265 -3 8 8 2 24 -15 23 -23 70 -130 198
-450 92 -231 179 -442 192 -470 111 -222 356 -414 648 -510 98 -32 138 -34
165 -10 47 43 38 57 -254 418 l-274 339 -183 429 -184 429 -175 218 c-96 119
-163 210 -150 201 672 -437 1718 -1105 1786 -1139 197 -101 385 -144 619 -143
361 1 672 130 925 383 190 189 320 438 364 694 14 77 17 83 58 116 302 244
480 550 555 955 22 122 28 417 10 550 -18 133 -22 136 -147 159 -760 140
-1891 44 -3275 -279 -215 -50 -686 -172 -869 -225 -38 -11 -71 -18 -73 -16 -2
2 95 140 216 308 l220 305 36 223 c19 122 35 224 35 226 0 2 10 4 23 4 38 0
158 38 236 75 185 88 351 257 442 448 16 34 29 74 29 88 0 30 -38 69 -67 69
-11 0 -103 -40 -204 -89 -101 -48 -213 -102 -249 -119 -472 -221 -488 -229
-499 -265 -6 -17 -29 -133 -51 -257 -22 -124 -41 -228 -43 -232 -1 -4 -138
-144 -305 -312 l-304 -304 -44 31 -45 32 23 18 c113 89 163 136 207 194 87
116 120 242 86 333 -9 25 -16 50 -16 55 1 6 4 39 7 75 11 122 -55 237 -194
337 -100 72 -182 98 -302 98 -71 -1 -103 -5 -127 -18 -26 -14 -33 -15 -33 -4
0 32 104 496 122 544 25 69 97 163 156 206 110 81 525 292 537 274 1 -1 16
-23 33 -49 59 -87 151 -146 269 -174 77 -18 283 -14 341 6 34 13 49 43 38 77
-7 23 -417 227 -489 244 -72 17 -250 7 -312 -19 -71 -28 -429 -226 -485 -267
-66 -48 -137 -137 -177 -222 -27 -56 -48 -136 -97 -364 l-63 -293 -204 0 -204
0 -62 295 c-70 327 -92 387 -180 491 -68 80 -114 113 -296 213 -307 167 -328
175 -477 174 -68 0 -112 -6 -155 -20z m80 -109 c-12 -19 -91 -68 -135 -83 -25
-8 -67 -18 -95 -21 l-50 -7 30 17 c17 10 73 37 125 61 92 41 138 54 125 33z
m2755 -54 c119 -57 121 -67 10 -40 -70 16 -133 49 -165 84 l-20 23 30 -6 c17
-3 82 -30 145 -61z m-3287 -958 c81 -39 147 -74 147 -78 0 -3 -13 -13 -29 -23
-27 -16 -33 -16 -102 2 -145 37 -251 97 -357 202 -121 120 -126 122 341 -103z
m4068 184 c-20 -37 -161 -161 -227 -200 -68 -40 -185 -84 -254 -96 -27 -4 -41
0 -62 17 l-26 22 286 137 c158 75 288 137 290 137 1 1 -2 -7 -7 -17z m-2664
-307 c45 -19 62 -41 62 -80 1 -79 -88 -187 -194 -236 -243 -114 -391 15 -224
196 99 107 258 161 356 120z m1066 -23 c112 -51 207 -161 207 -241 0 -71 -78
-109 -184 -90 -186 33 -352 213 -295 320 30 57 158 62 272 11z m-442 -37 c11
-4 18 -22 21 -55 14 -142 170 -305 347 -361 83 -26 210 -29 264 -6 l37 16 0
-33 c0 -53 -57 -153 -127 -223 -75 -76 -210 -167 -232 -157 -9 3 -65 19 -126
34 -268 69 -574 63 -833 -16 l-83 -25 -72 48 c-149 99 -267 248 -267 337 0 25
3 28 23 22 63 -18 127 -26 167 -21 230 31 435 202 457 383 6 55 6 55 78 66 43
6 327 -1 346 -9z m-1754 -172 l30 -168 -20 -18 c-20 -18 -21 -18 -28 0 -3 10
-17 86 -29 170 -19 125 -21 155 -10 167 7 9 16 16 19 16 4 0 21 -75 38 -167z
m3163 152 c10 -12 8 -44 -10 -162 -13 -82 -26 -159 -29 -171 -6 -23 -7 -23
-29 -5 l-21 18 18 95 c10 52 24 128 31 168 12 74 18 83 40 57z m-2775 -746
c208 -210 286 -294 279 -303 -23 -30 -93 -138 -96 -148 -3 -7 -10 -8 -20 -2
-16 9 -522 704 -516 709 31 21 54 35 58 35 4 0 136 -131 295 -291z m2657 273
l28 -18 -240 -335 c-271 -377 -265 -369 -283 -369 -15 0 -112 137 -112 157 0
12 563 583 574 583 3 0 18 -8 33 -18z m-5907 -202 c722 -36 1529 -169 2485
-410 242 -61 650 -174 825 -228 67 -21 64 -12 45 -133 l-12 -76 -76 24 c-263
83 -752 215 -1127 303 -717 169 -1354 273 -1965 321 -204 16 -719 16 -890 0
-181 -16 -184 -19 -188 -137 -5 -161 39 -384 109 -548 63 -149 205 -329 344
-436 138 -107 341 -202 498 -234 323 -67 739 -35 1262 95 423 105 938 287
1427 504 l191 85 128 -37 c71 -20 129 -40 129 -43 0 -7 -255 -126 -480 -223
-578 -249 -1223 -457 -1681 -541 -381 -70 -739 -81 -989 -30 -398 81 -764 342
-948 676 -87 157 -150 363 -173 568 -13 116 -7 416 9 432 13 13 67 24 217 43
259 32 543 41 860 25z m9530 -10 c146 -14 326 -40 346 -51 31 -16 39 -293 15
-479 -65 -487 -312 -844 -736 -1068 -233 -122 -429 -165 -755 -165 -302 0
-568 38 -966 139 -487 123 -1090 342 -1599 581 -58 27 -129 60 -157 73 -29 13
-53 26 -53 30 0 3 58 23 129 43 l130 38 78 -37 c474 -219 1083 -439 1523 -549
387 -97 614 -129 910 -129 288 0 424 25 617 114 326 151 550 409 647 743 35
119 57 285 54 391 -4 118 -7 121 -188 137 -169 16 -685 16 -885 0 -913 -72
-1936 -277 -3050 -610 -55 -16 -101 -28 -103 -27 -1 2 -7 30 -13 62 -5 33 -12
73 -16 90 l-5 31 83 26 c192 60 574 163 873 238 925 229 1748 361 2451 393
129 6 551 -3 670 -14z m-4837 -200 c202 -41 334 -104 455 -220 66 -62 86 -89
122 -165 69 -142 78 -205 72 -522 -4 -294 -9 -324 -72 -460 -46 -101 -95 -170
-172 -247 -201 -201 -461 -364 -647 -406 -152 -34 -590 234 -787 480 -60 75
-131 215 -156 310 -15 55 -18 109 -18 365 l0 300 29 88 c91 278 339 448 728
497 112 14 328 4 446 -20z m-4505 -131 c92 -7 165 -14 162 -17 -2 -2 -39 -19
-82 -36 -270 -111 -533 -353 -701 -643 -20 -35 -39 -63 -43 -63 -14 0 -92 96
-131 162 -50 85 -92 188 -118 290 -27 102 -47 285 -34 298 28 28 594 33 947 9z
m9188 10 c101 -6 188 -15 194 -20 12 -12 -9 -201 -34 -296 -27 -104 -65 -199
-114 -281 -39 -66 -125 -180 -137 -182 -3 0 -12 14 -19 32 -25 56 -146 230
-219 314 -75 86 -186 183 -291 254 -71 48 -221 125 -264 135 -60 16 -28 23
151 34 363 23 490 24 733 10z m-8253 -124 c56 -10 102 -21 102 -24 0 -3 -26
-17 -57 -31 -207 -89 -401 -291 -467 -486 -37 -111 -52 -239 -40 -348 5 -48 6
-89 3 -92 -4 -2 -83 -7 -176 -10 -333 -12 -552 42 -786 193 l-69 44 37 67
c208 378 531 625 911 696 108 21 402 16 542 -9z m7098 10 c283 -50 539 -200
733 -430 77 -90 155 -204 195 -283 l26 -52 -67 -44 c-137 -88 -269 -143 -420
-173 -68 -14 -137 -18 -303 -18 -118 0 -222 3 -230 7 -14 5 -14 18 -6 94 15
139 -11 296 -71 424 -74 159 -261 334 -436 410 -31 14 -57 28 -57 31 0 4 55
16 123 27 155 25 387 28 513 7z m-6529 -125 c108 -15 307 -59 658 -147 165
-42 310 -78 323 -80 12 -3 24 -9 27 -13 2 -4 -60 -34 -138 -68 -579 -247
-1158 -432 -1612 -515 -103 -19 -132 -21 -138 -11 -4 7 -10 52 -13 101 -15
227 90 442 280 577 186 132 394 185 613 156z m5749 -20 c97 -24 240 -94 316
-154 175 -139 268 -343 254 -557 -8 -127 1 -120 -124 -97 -434 77 -1014 257
-1522 470 -234 99 -261 111 -253 119 18 17 820 210 973 235 107 17 252 10 356
-16z m-4096 -508 c0 -44 -5 -63 -17 -74 -43 -36 -2018 -1300 -2084 -1334 -200
-100 -443 -147 -654 -125 -409 43 -743 265 -933 621 -37 68 -89 204 -106 272
l-6 28 77 -39 c43 -21 95 -46 115 -54 31 -13 42 -26 62 -71 37 -83 105 -184
177 -260 294 -315 759 -403 1151 -218 46 21 443 271 883 554 727 468 814 522
958 587 87 39 202 94 255 121 53 27 103 49 110 49 8 1 12 -17 12 -57z m2497
-113 c143 -65 230 -118 943 -578 432 -278 828 -527 880 -553 335 -169 754
-131 1048 95 119 92 238 241 299 373 22 48 32 58 72 75 25 11 77 36 114 54 78
40 74 48 35 -75 -68 -220 -223 -439 -410 -580 -358 -270 -850 -311 -1259 -104
-39 19 -521 325 -1072 680 l-1002 645 -3 70 -3 70 100 -50 c55 -28 171 -83
258 -122z m-2434 -379 c4 -10 -46 -61 -154 -160 -262 -237 -244 -224 -273
-203 -14 10 -24 21 -23 25 1 4 92 118 201 254 l199 247 22 -74 c12 -41 25 -81
28 -89z m2180 18 c63 -79 154 -192 202 -251 48 -59 86 -109 84 -110 -2 -1 -14
-11 -26 -21 -23 -19 -23 -19 -75 27 -103 88 -353 319 -353 325 0 10 48 172 51
172 1 0 54 -64 117 -142z m-3474 9 c-2 -2 -220 -143 -484 -313 -496 -318 -564
-358 -677 -392 -74 -23 -227 -47 -237 -37 -3 4 -6 46 -6 93 0 74 5 95 28 143
33 68 100 132 170 164 29 13 140 44 247 70 314 75 511 130 735 204 197 65 234
76 224 68z m4812 -72 c209 -68 428 -128 762 -209 103 -25 204 -53 223 -62 58
-27 128 -98 159 -161 26 -51 30 -69 30 -145 0 -47 -3 -89 -7 -93 -10 -10 -159
13 -237 37 -36 11 -95 34 -131 52 -51 25 -1010 634 -1030 654 -3 3 2 3 11 0 8
-3 107 -36 220 -73z m-3420 -141 c15 -24 19 -41 13 -49 -153 -211 -263 -425
-335 -656 -18 -57 -34 -106 -35 -107 -6 -8 -74 20 -74 30 0 10 63 164 234 570
57 135 73 164 114 202 26 25 50 46 54 46 3 0 16 -16 29 -36z m1902 -12 c31
-32 57 -73 81 -127 103 -240 266 -635 266 -644 0 -9 -69 -37 -74 -29 -1 1 -21
62 -45 133 -54 165 -157 379 -255 525 -42 62 -76 118 -76 123 0 12 40 67 49
67 4 0 28 -21 54 -48z m-5321 -106 c141 -20 340 -28 475 -19 74 6 109 5 105
-2 -3 -5 -19 -30 -34 -55 -43 -68 -68 -160 -68 -251 l0 -79 -27 6 c-226 51
-394 157 -521 329 -58 79 -69 100 -49 92 9 -3 62 -13 119 -21z m8762 12 c-62
-109 -194 -243 -302 -307 -66 -40 -199 -91 -269 -104 l-33 -6 0 78 c0 91 -25
183 -68 251 -15 25 -31 50 -34 55 -4 7 38 7 125 2 143 -10 393 4 507 27 36 8
69 14 73 15 5 0 5 -5 1 -11z m-3601 -100 c65 -91 149 -247 198 -366 49 -120
56 -104 -82 -176 -221 -116 -505 -166 -933 -166 -315 0 -606 32 -776 85 -79
25 -250 107 -293 139 -17 13 -18 19 -7 53 38 119 241 483 269 483 5 0 33 -22
63 -48 243 -218 461 -344 678 -392 49 -10 65 -9 140 10 190 48 438 196 625
373 39 36 71 66 72 67 1 0 22 -28 46 -62z m-2340 -92 c17 -13 9 -36 -124 -367
-77 -195 -143 -357 -146 -362 -4 -7 -19 -1 -52 21 -10 8 19 83 140 366 84 196
155 356 158 356 3 0 14 -7 24 -14z m3189 -328 c81 -189 149 -350 152 -358 4
-10 -5 -21 -25 -33 -18 -10 -33 -16 -34 -15 -1 2 -66 164 -145 361 -136 342
-142 359 -124 372 11 8 21 15 24 15 3 0 71 -154 152 -342z m-2569 -308 c203
-79 514 -120 905 -120 486 0 823 68 1059 214 l41 26 20 -87 c18 -78 31 -151
46 -264 4 -34 1 -38 -61 -88 -127 -100 -270 -170 -429 -211 -353 -90 -1020
-91 -1384 -1 -162 40 -339 129 -460 231 l-41 35 15 103 c9 56 25 143 36 191
l21 88 77 -43 c42 -25 112 -58 155 -74z m-446 -60 c-3 -25 -20 -197 -38 -383
l-34 -339 -34 6 c-18 3 -35 6 -36 8 -3 3 79 681 90 745 5 31 7 32 32 20 23
-10 25 -15 20 -57z m2762 -321 c52 -416 52 -396 -5 -398 -20 -1 -22 7 -33 112
-6 61 -16 175 -21 252 -6 77 -15 167 -20 200 -5 33 -13 93 -16 132 -6 70 -6
73 17 82 13 5 25 7 27 6 2 -2 25 -175 51 -386z m-3301 171 c17 -11 32 -23 32
-28 0 -36 -128 -186 -221 -257 -58 -45 -189 -121 -189 -110 0 9 330 415 338
415 4 0 22 -9 40 -20z m3949 -177 c88 -109 163 -204 167 -211 11 -18 -62 19
-146 74 -74 49 -211 190 -246 253 l-22 40 37 20 c21 11 41 20 44 21 4 0 79
-89 166 -197z m-3205 -104 c85 -58 247 -133 351 -163 203 -59 558 -92 892 -83
486 13 750 77 1009 244 l69 45 -6 -94 c-6 -103 -35 -225 -76 -327 -30 -76 -38
-81 -208 -137 -255 -83 -737 -129 -1113 -105 -374 24 -590 62 -800 142 l-76
29 -26 68 c-38 98 -67 216 -74 297 -3 39 -7 82 -9 98 -3 15 -2 27 1 27 3 0 32
-19 66 -41z m-301 -434 c11 -7 -15 -96 -49 -169 -42 -89 -98 -169 -176 -251
-80 -84 -80 -83 19 150 39 94 82 196 95 228 l24 59 40 -6 c21 -4 42 -9 47 -11z
m2976 -62 c18 -43 64 -154 103 -247 38 -93 70 -171 70 -174 0 -4 -23 16 -51
43 -102 101 -197 252 -233 374 -17 57 -14 66 19 74 55 13 59 10 92 -70z
m-2412 -178 c100 -26 288 -55 490 -76 182 -19 638 -16 815 5 194 23 359 52
443 77 38 11 71 18 74 15 11 -11 -113 -161 -232 -282 l-120 -122 -90 -11 c-49
-6 -180 -16 -289 -22 -210 -12 -519 -2 -734 25 l-103 12 -85 85 c-109 107
-288 319 -270 319 3 0 49 -11 101 -25z m765 -560 c91 -4 239 -2 330 3 91 6
166 9 168 7 2 -2 -59 -53 -135 -115 -76 -61 -166 -138 -201 -172 l-62 -60 -73
68 c-40 38 -133 118 -207 178 l-135 109 75 -6 c41 -4 149 -9 240 -12z"/>
<path d="M7786 6804 c-41 -41 -31 -76 48 -162 114 -124 274 -119 378 12 22 28
44 61 49 75 18 47 -13 91 -66 91 -27 0 -39 -7 -66 -42 -84 -111 -118 -115
-205 -23 -50 52 -67 65 -92 65 -17 0 -38 -7 -46 -16z"/>
<path d="M7510 6350 c-25 -25 -25 -50 0 -101 70 -135 194 -187 287 -120 l41
29 28 -30 c40 -42 100 -68 159 -68 53 0 97 20 147 67 l27 25 33 -23 c26 -19
46 -24 94 -24 51 0 66 4 98 29 44 33 116 139 116 171 0 37 -37 67 -78 63 -29
-2 -41 -10 -57 -36 -11 -19 -32 -48 -47 -65 -33 -39 -51 -32 -87 32 -45 81
-101 81 -151 -1 -70 -114 -103 -125 -168 -54 -22 24 -48 58 -56 75 -17 33 -51
47 -85 36 -12 -3 -37 -31 -56 -61 -42 -66 -56 -66 -102 -4 -18 25 -39 53 -48
63 -20 23 -70 22 -95 -3z"/>
<path d="M7280 5890 c-40 -40 -13 -124 67 -203 47 -48 100 -65 156 -50 40 11
42 10 85 -28 66 -57 148 -65 212 -19 l30 21 26 -30 c41 -49 110 -85 163 -85
56 1 100 22 148 74 l37 39 28 -20 c63 -45 145 -37 211 21 42 37 47 39 77 29
72 -26 149 12 210 103 46 69 52 116 20 148 -38 38 -89 21 -120 -41 -12 -22
-30 -49 -41 -60 l-21 -21 -33 32 c-27 26 -39 31 -71 28 -31 -2 -42 -9 -61 -38
-38 -61 -64 -90 -79 -90 -8 0 -30 25 -49 55 -57 89 -112 87 -158 -8 -71 -144
-123 -142 -209 10 -30 53 -55 69 -94 61 -10 -2 -36 -29 -57 -61 -20 -31 -43
-57 -51 -57 -16 0 -46 33 -80 88 -23 37 -31 42 -62 42 -27 0 -42 -8 -64 -32
l-30 -32 -26 25 c-14 13 -35 41 -45 61 -30 59 -81 76 -119 38z"/>
</g>
</svg>
